<mxfile host="app.diagrams.net" agent="Mozilla/5.0 (Macintosh; Intel Mac OS X 10.15; rv:131.0) Gecko/20100101 Firefox/131.0" version="24.8.0">
  <diagram name="Page-1" id="jAXdzR7pBrtVSOsXg87T">
    <mxGraphModel dx="4510" dy="1869" grid="1" gridSize="10" guides="1" tooltips="1" connect="1" arrows="1" fold="1" page="1" pageScale="1" pageWidth="850" pageHeight="1100" math="0" shadow="0">
      <root>
        <mxCell id="0" />
        <mxCell id="1" parent="0" />
        <mxCell id="_ehPLdMpt5ip51sRVYlI-2" value="GridION (OS)" style="shape=cube;whiteSpace=wrap;html=1;boundedLbl=1;backgroundOutline=1;darkOpacity=0.05;darkOpacity2=0.1;fillColor=#ffe6cc;strokeColor=#d79b00;fontStyle=1;verticalAlign=top;strokeWidth=3;" vertex="1" parent="1">
          <mxGeometry x="180" y="240" width="330" height="200" as="geometry" />
        </mxCell>
        <mxCell id="_ehPLdMpt5ip51sRVYlI-1" value="&lt;div&gt;GridION&lt;/div&gt;&lt;div&gt;Sequencer&lt;/div&gt;" style="shape=cube;whiteSpace=wrap;html=1;boundedLbl=1;backgroundOutline=1;darkOpacity=0.05;darkOpacity2=0.1;fillColor=#ffe6cc;strokeColor=#d79b00;fontStyle=1;strokeWidth=3;" vertex="1" parent="1">
          <mxGeometry x="80" y="360" width="120" height="80" as="geometry" />
        </mxCell>
        <mxCell id="_ehPLdMpt5ip51sRVYlI-4" value="pod5" style="sketch=0;outlineConnect=0;fillColor=#e51400;strokeColor=#B20000;dashed=0;verticalLabelPosition=middle;verticalAlign=middle;align=center;html=1;fontSize=12;fontStyle=1;aspect=fixed;pointerEvents=1;shape=mxgraph.aws4.folder;labelPosition=center;strokeWidth=3;fontColor=#FF0000;" vertex="1" parent="1">
          <mxGeometry x="220" y="390" width="43.95" height="40" as="geometry" />
        </mxCell>
        <mxCell id="_ehPLdMpt5ip51sRVYlI-10" value="output" style="sketch=0;outlineConnect=0;fontColor=#009900;gradientColor=none;fillColor=#009900;strokeColor=none;dashed=0;verticalLabelPosition=middle;verticalAlign=middle;align=center;html=1;fontSize=12;fontStyle=1;aspect=fixed;pointerEvents=1;shape=mxgraph.aws4.folder;labelPosition=center;" vertex="1" parent="1">
          <mxGeometry x="220" y="340" width="43.95" height="40" as="geometry" />
        </mxCell>
        <mxCell id="_ehPLdMpt5ip51sRVYlI-13" value="&lt;div&gt;Sturgeon&lt;/div&gt;&lt;div&gt;container&lt;br&gt;&lt;/div&gt;" style="shape=cube;whiteSpace=wrap;html=1;boundedLbl=1;backgroundOutline=1;darkOpacity=0.05;darkOpacity2=0.1;fillColor=#cce5ff;strokeColor=#36393d;fontStyle=1;verticalAlign=middle;strokeWidth=3;" vertex="1" parent="1">
          <mxGeometry x="270" y="340" width="90" height="80" as="geometry" />
        </mxCell>
        <mxCell id="_ehPLdMpt5ip51sRVYlI-14" value="wrapper" style="sketch=0;outlineConnect=0;fontColor=#999999;gradientColor=none;fillColor=#999999;strokeColor=none;dashed=0;verticalLabelPosition=middle;verticalAlign=middle;align=center;html=1;fontSize=9;fontStyle=1;aspect=fixed;pointerEvents=1;shape=mxgraph.aws4.folder;labelPosition=center;" vertex="1" parent="1">
          <mxGeometry x="220" y="290" width="43.95" height="40" as="geometry" />
        </mxCell>
        <mxCell id="_ehPLdMpt5ip51sRVYlI-22" style="edgeStyle=orthogonalEdgeStyle;rounded=0;orthogonalLoop=1;jettySize=auto;html=1;exitX=0.5;exitY=1;exitDx=0;exitDy=0;entryX=0.5;entryY=0;entryDx=0;entryDy=0;strokeWidth=3;" edge="1" parent="1" source="_ehPLdMpt5ip51sRVYlI-19" target="_ehPLdMpt5ip51sRVYlI-20">
          <mxGeometry relative="1" as="geometry" />
        </mxCell>
        <mxCell id="_ehPLdMpt5ip51sRVYlI-19" value="Start" style="rounded=1;whiteSpace=wrap;html=1;fillColor=#000000;fontColor=#FFFFFF;fontStyle=1;fontSize=23;" vertex="1" parent="1">
          <mxGeometry x="80" y="490" width="120" height="60" as="geometry" />
        </mxCell>
        <mxCell id="_ehPLdMpt5ip51sRVYlI-24" value="" style="edgeStyle=orthogonalEdgeStyle;rounded=0;orthogonalLoop=1;jettySize=auto;html=1;strokeWidth=3;" edge="1" parent="1" source="_ehPLdMpt5ip51sRVYlI-20" target="_ehPLdMpt5ip51sRVYlI-23">
          <mxGeometry relative="1" as="geometry" />
        </mxCell>
        <mxCell id="_ehPLdMpt5ip51sRVYlI-20" value="Start sequencing on the GridION" style="verticalLabelPosition=middle;verticalAlign=middle;html=1;shape=process;whiteSpace=wrap;rounded=1;size=0.14;arcSize=6;strokeWidth=3;labelPosition=center;align=center;fontStyle=1;strokeColor=#B3B3B3;" vertex="1" parent="1">
          <mxGeometry x="80" y="610" width="120" height="80" as="geometry" />
        </mxCell>
        <mxCell id="_ehPLdMpt5ip51sRVYlI-26" value="" style="edgeStyle=orthogonalEdgeStyle;shape=connector;rounded=0;orthogonalLoop=1;jettySize=auto;html=1;strokeColor=default;strokeWidth=3;align=center;verticalAlign=middle;fontFamily=Helvetica;fontSize=11;fontColor=default;labelBackgroundColor=default;endArrow=classic;" edge="1" parent="1" source="_ehPLdMpt5ip51sRVYlI-23" target="_ehPLdMpt5ip51sRVYlI-25">
          <mxGeometry relative="1" as="geometry" />
        </mxCell>
        <mxCell id="_ehPLdMpt5ip51sRVYlI-23" value="Open Sturgeon GUI" style="verticalLabelPosition=middle;verticalAlign=middle;html=1;shape=process;whiteSpace=wrap;rounded=1;size=0.14;arcSize=6;strokeWidth=3;labelPosition=center;align=center;fontStyle=1;strokeColor=#0000FF;" vertex="1" parent="1">
          <mxGeometry x="80" y="770" width="120" height="80" as="geometry" />
        </mxCell>
        <mxCell id="_ehPLdMpt5ip51sRVYlI-33" value="" style="edgeStyle=orthogonalEdgeStyle;shape=connector;rounded=0;orthogonalLoop=1;jettySize=auto;html=1;strokeColor=default;strokeWidth=3;align=center;verticalAlign=middle;fontFamily=Helvetica;fontSize=11;fontColor=default;labelBackgroundColor=default;endArrow=classic;" edge="1" parent="1" source="_ehPLdMpt5ip51sRVYlI-25" target="_ehPLdMpt5ip51sRVYlI-32">
          <mxGeometry relative="1" as="geometry" />
        </mxCell>
        <mxCell id="_ehPLdMpt5ip51sRVYlI-25" value="Fill in the setup page" style="verticalLabelPosition=middle;verticalAlign=middle;html=1;shape=process;whiteSpace=wrap;rounded=1;size=0.14;arcSize=6;strokeWidth=3;labelPosition=center;align=center;fontStyle=1;strokeColor=#0000FF;" vertex="1" parent="1">
          <mxGeometry x="80" y="930" width="120" height="80" as="geometry" />
        </mxCell>
        <mxCell id="_ehPLdMpt5ip51sRVYlI-27" value="&lt;div&gt;See Sturgeon GUI&lt;/div&gt;&lt;div&gt;User Manual&lt;br&gt;&lt;/div&gt;" style="strokeWidth=3;html=1;shape=mxgraph.flowchart.annotation_2;align=left;labelPosition=right;pointerEvents=1;fontFamily=Helvetica;fontSize=11;fontColor=default;labelBackgroundColor=default;fontStyle=0;strokeColor=#0000FF;" vertex="1" parent="1">
          <mxGeometry x="200" y="760" width="50" height="100" as="geometry" />
        </mxCell>
        <mxCell id="_ehPLdMpt5ip51sRVYlI-28" value="&lt;div&gt;See Sturgeon GUI&lt;/div&gt;&lt;div&gt;User Manual&lt;br&gt;&lt;/div&gt;" style="strokeWidth=3;html=1;shape=mxgraph.flowchart.annotation_2;align=left;labelPosition=right;pointerEvents=1;fontFamily=Helvetica;fontSize=11;fontColor=default;labelBackgroundColor=default;fontStyle=0;strokeColor=#0000FF;" vertex="1" parent="1">
          <mxGeometry x="200" y="920" width="50" height="100" as="geometry" />
        </mxCell>
        <mxCell id="_ehPLdMpt5ip51sRVYlI-31" value="&lt;div&gt;See GridION&amp;nbsp;&lt;/div&gt;&lt;div&gt;Documentation&lt;/div&gt;" style="strokeWidth=3;html=1;shape=mxgraph.flowchart.annotation_2;align=left;labelPosition=right;pointerEvents=1;fontFamily=Helvetica;fontSize=11;fontColor=default;labelBackgroundColor=default;fontStyle=0;strokeColor=#B3B3B3;" vertex="1" parent="1">
          <mxGeometry x="200" y="600" width="50" height="100" as="geometry" />
        </mxCell>
        <mxCell id="_ehPLdMpt5ip51sRVYlI-36" value="False" style="edgeStyle=orthogonalEdgeStyle;shape=connector;rounded=0;orthogonalLoop=1;jettySize=auto;html=1;strokeColor=default;strokeWidth=3;align=center;verticalAlign=middle;fontFamily=Helvetica;fontSize=11;fontColor=default;labelBackgroundColor=default;endArrow=classic;fontStyle=1" edge="1" parent="1" source="_ehPLdMpt5ip51sRVYlI-32" target="_ehPLdMpt5ip51sRVYlI-35">
          <mxGeometry x="-0.1429" relative="1" as="geometry">
            <mxPoint as="offset" />
          </mxGeometry>
        </mxCell>
        <mxCell id="_ehPLdMpt5ip51sRVYlI-39" value="True" style="edgeStyle=orthogonalEdgeStyle;shape=connector;rounded=0;orthogonalLoop=1;jettySize=auto;html=1;strokeColor=default;strokeWidth=3;align=center;verticalAlign=middle;fontFamily=Helvetica;fontSize=11;fontColor=default;labelBackgroundColor=default;endArrow=classic;fontStyle=1;" edge="1" parent="1" source="_ehPLdMpt5ip51sRVYlI-32" target="_ehPLdMpt5ip51sRVYlI-38">
          <mxGeometry relative="1" as="geometry" />
        </mxCell>
        <mxCell id="_ehPLdMpt5ip51sRVYlI-32" value="&lt;div&gt;Are&amp;nbsp;&lt;/div&gt;&lt;div&gt;settings&lt;/div&gt;&lt;div&gt;valid?&lt;/div&gt;" style="rhombus;whiteSpace=wrap;html=1;rounded=1;arcSize=6;strokeWidth=3;fontStyle=1;strokeColor=#CC0000;" vertex="1" parent="1">
          <mxGeometry x="100" y="1090" width="80" height="80" as="geometry" />
        </mxCell>
        <mxCell id="_ehPLdMpt5ip51sRVYlI-37" style="edgeStyle=orthogonalEdgeStyle;shape=connector;rounded=0;orthogonalLoop=1;jettySize=auto;html=1;exitX=0.5;exitY=0;exitDx=0;exitDy=0;entryX=0.5;entryY=0;entryDx=0;entryDy=0;strokeColor=default;strokeWidth=3;align=center;verticalAlign=middle;fontFamily=Helvetica;fontSize=11;fontColor=default;labelBackgroundColor=default;endArrow=classic;" edge="1" parent="1" source="_ehPLdMpt5ip51sRVYlI-35" target="_ehPLdMpt5ip51sRVYlI-25">
          <mxGeometry relative="1" as="geometry">
            <Array as="points">
              <mxPoint x="-30" y="890" />
              <mxPoint x="140" y="890" />
            </Array>
          </mxGeometry>
        </mxCell>
        <mxCell id="_ehPLdMpt5ip51sRVYlI-35" value="Return error" style="whiteSpace=wrap;html=1;rounded=1;arcSize=6;strokeWidth=3;fontStyle=1;strokeColor=#CC0000;" vertex="1" parent="1">
          <mxGeometry x="-90" y="1100" width="120" height="60" as="geometry" />
        </mxCell>
        <mxCell id="_ehPLdMpt5ip51sRVYlI-43" value="" style="edgeStyle=orthogonalEdgeStyle;shape=connector;rounded=0;orthogonalLoop=1;jettySize=auto;html=1;strokeColor=default;strokeWidth=3;align=center;verticalAlign=middle;fontFamily=Helvetica;fontSize=11;fontColor=default;fontStyle=1;labelBackgroundColor=default;endArrow=classic;" edge="1" parent="1" source="_ehPLdMpt5ip51sRVYlI-38" target="_ehPLdMpt5ip51sRVYlI-42">
          <mxGeometry relative="1" as="geometry" />
        </mxCell>
        <mxCell id="_ehPLdMpt5ip51sRVYlI-38" value="Build and execute docker run command" style="whiteSpace=wrap;html=1;rounded=1;arcSize=6;strokeWidth=3;fontStyle=1;strokeColor=#CC0000;" vertex="1" parent="1">
          <mxGeometry x="80" y="1260" width="120" height="60" as="geometry" />
        </mxCell>
        <mxCell id="_ehPLdMpt5ip51sRVYlI-47" value="True" style="edgeStyle=orthogonalEdgeStyle;shape=connector;rounded=0;orthogonalLoop=1;jettySize=auto;html=1;exitX=0;exitY=0.5;exitDx=0;exitDy=0;entryX=1;entryY=0.5;entryDx=0;entryDy=0;strokeColor=default;strokeWidth=3;align=center;verticalAlign=middle;fontFamily=Helvetica;fontSize=11;fontColor=default;fontStyle=1;labelBackgroundColor=default;endArrow=classic;" edge="1" parent="1" source="_ehPLdMpt5ip51sRVYlI-42" target="_ehPLdMpt5ip51sRVYlI-46">
          <mxGeometry relative="1" as="geometry" />
        </mxCell>
        <mxCell id="_ehPLdMpt5ip51sRVYlI-50" value="False" style="edgeStyle=orthogonalEdgeStyle;shape=connector;rounded=0;orthogonalLoop=1;jettySize=auto;html=1;strokeColor=default;strokeWidth=3;align=center;verticalAlign=middle;fontFamily=Helvetica;fontSize=11;fontColor=default;fontStyle=1;labelBackgroundColor=default;endArrow=classic;" edge="1" parent="1" source="_ehPLdMpt5ip51sRVYlI-42" target="_ehPLdMpt5ip51sRVYlI-49">
          <mxGeometry relative="1" as="geometry" />
        </mxCell>
        <mxCell id="_ehPLdMpt5ip51sRVYlI-42" value="&lt;div&gt;Still&amp;nbsp;&lt;/div&gt;&lt;div&gt;running?&lt;/div&gt;" style="rhombus;whiteSpace=wrap;html=1;rounded=1;arcSize=6;strokeWidth=3;fontStyle=1;strokeColor=#CC0000;" vertex="1" parent="1">
          <mxGeometry x="100" y="1390" width="80" height="80" as="geometry" />
        </mxCell>
        <mxCell id="_ehPLdMpt5ip51sRVYlI-48" style="edgeStyle=orthogonalEdgeStyle;shape=connector;rounded=0;orthogonalLoop=1;jettySize=auto;html=1;exitX=0.5;exitY=0;exitDx=0;exitDy=0;entryX=0.5;entryY=0;entryDx=0;entryDy=0;strokeColor=default;strokeWidth=3;align=center;verticalAlign=middle;fontFamily=Helvetica;fontSize=11;fontColor=default;fontStyle=1;labelBackgroundColor=default;endArrow=classic;" edge="1" parent="1" source="_ehPLdMpt5ip51sRVYlI-46" target="_ehPLdMpt5ip51sRVYlI-42">
          <mxGeometry relative="1" as="geometry">
            <Array as="points">
              <mxPoint x="-30" y="1350" />
              <mxPoint x="140" y="1350" />
            </Array>
          </mxGeometry>
        </mxCell>
        <mxCell id="_ehPLdMpt5ip51sRVYlI-46" value="Show progress" style="verticalLabelPosition=middle;verticalAlign=middle;html=1;shape=process;whiteSpace=wrap;rounded=1;size=0.14;arcSize=6;strokeWidth=3;labelPosition=center;align=center;fontStyle=1;strokeColor=#CC0000;" vertex="1" parent="1">
          <mxGeometry x="-90" y="1390" width="120" height="80" as="geometry" />
        </mxCell>
        <mxCell id="_ehPLdMpt5ip51sRVYlI-52" value="" style="edgeStyle=orthogonalEdgeStyle;shape=connector;rounded=0;orthogonalLoop=1;jettySize=auto;html=1;strokeColor=default;strokeWidth=3;align=center;verticalAlign=middle;fontFamily=Helvetica;fontSize=11;fontColor=default;fontStyle=1;labelBackgroundColor=default;endArrow=classic;entryX=0.5;entryY=0;entryDx=0;entryDy=0;" edge="1" parent="1" source="_ehPLdMpt5ip51sRVYlI-49" target="_ehPLdMpt5ip51sRVYlI-55">
          <mxGeometry relative="1" as="geometry">
            <mxPoint x="140" y="1680" as="targetPoint" />
          </mxGeometry>
        </mxCell>
        <mxCell id="_ehPLdMpt5ip51sRVYlI-49" value="Enable GUI close button" style="whiteSpace=wrap;html=1;rounded=1;arcSize=6;strokeWidth=3;fontStyle=1;strokeColor=#CC0000;" vertex="1" parent="1">
          <mxGeometry x="80" y="1540" width="120" height="60" as="geometry" />
        </mxCell>
        <mxCell id="_ehPLdMpt5ip51sRVYlI-54" style="edgeStyle=orthogonalEdgeStyle;shape=connector;rounded=0;orthogonalLoop=1;jettySize=auto;html=1;exitX=0.5;exitY=1;exitDx=0;exitDy=0;entryX=0.5;entryY=0;entryDx=0;entryDy=0;strokeColor=default;strokeWidth=3;align=center;verticalAlign=middle;fontFamily=Helvetica;fontSize=11;fontColor=default;fontStyle=1;labelBackgroundColor=default;endArrow=classic;" edge="1" parent="1" source="_ehPLdMpt5ip51sRVYlI-55" target="_ehPLdMpt5ip51sRVYlI-53">
          <mxGeometry relative="1" as="geometry">
            <mxPoint x="140" y="1740" as="sourcePoint" />
          </mxGeometry>
        </mxCell>
        <mxCell id="_ehPLdMpt5ip51sRVYlI-53" value="End" style="rounded=1;whiteSpace=wrap;html=1;fillColor=#000000;fontColor=#FFFFFF;fontStyle=1;fontSize=23;" vertex="1" parent="1">
          <mxGeometry x="80" y="1790" width="120" height="60" as="geometry" />
        </mxCell>
        <mxCell id="_ehPLdMpt5ip51sRVYlI-55" value="Close GUI" style="verticalLabelPosition=middle;verticalAlign=middle;html=1;shape=process;whiteSpace=wrap;rounded=1;size=0.14;arcSize=6;strokeWidth=3;labelPosition=center;align=center;fontStyle=1;strokeColor=#0000FF;" vertex="1" parent="1">
          <mxGeometry x="80" y="1660" width="120" height="80" as="geometry" />
        </mxCell>
        <mxCell id="_ehPLdMpt5ip51sRVYlI-56" value="&lt;div&gt;See Sturgeon GUI&lt;/div&gt;&lt;div&gt;User Manual&lt;br&gt;&lt;/div&gt;" style="strokeWidth=3;html=1;shape=mxgraph.flowchart.annotation_2;align=left;labelPosition=right;pointerEvents=1;fontFamily=Helvetica;fontSize=11;fontColor=default;labelBackgroundColor=default;fontStyle=0;strokeColor=#0000FF;" vertex="1" parent="1">
          <mxGeometry x="200" y="1650" width="50" height="100" as="geometry" />
        </mxCell>
        <mxCell id="_ehPLdMpt5ip51sRVYlI-59" style="edgeStyle=orthogonalEdgeStyle;shape=connector;rounded=0;orthogonalLoop=1;jettySize=auto;html=1;exitX=0.5;exitY=1;exitDx=0;exitDy=0;entryX=0.5;entryY=0;entryDx=0;entryDy=0;strokeColor=default;strokeWidth=3;align=center;verticalAlign=middle;fontFamily=Helvetica;fontSize=11;fontColor=default;fontStyle=1;labelBackgroundColor=default;endArrow=classic;" edge="1" parent="1" source="_ehPLdMpt5ip51sRVYlI-57" target="_ehPLdMpt5ip51sRVYlI-58">
          <mxGeometry relative="1" as="geometry" />
        </mxCell>
        <mxCell id="_ehPLdMpt5ip51sRVYlI-57" value="Show progress" style="rounded=1;whiteSpace=wrap;html=1;fillColor=#000000;fontColor=#FFFFFF;fontStyle=1;fontSize=23;" vertex="1" parent="1">
          <mxGeometry x="530" y="490" width="120" height="60" as="geometry" />
        </mxCell>
        <mxCell id="_ehPLdMpt5ip51sRVYlI-63" value="" style="edgeStyle=orthogonalEdgeStyle;shape=connector;rounded=0;orthogonalLoop=1;jettySize=auto;html=1;strokeColor=default;strokeWidth=3;align=center;verticalAlign=middle;fontFamily=Helvetica;fontSize=11;fontColor=default;fontStyle=1;labelBackgroundColor=default;endArrow=classic;" edge="1" parent="1" source="_ehPLdMpt5ip51sRVYlI-58" target="_ehPLdMpt5ip51sRVYlI-62">
          <mxGeometry relative="1" as="geometry" />
        </mxCell>
        <mxCell id="_ehPLdMpt5ip51sRVYlI-58" value="&lt;div&gt;Show&lt;/div&gt;&lt;div&gt;progress page&lt;br&gt;&lt;/div&gt;" style="whiteSpace=wrap;html=1;rounded=1;arcSize=6;strokeWidth=3;fontStyle=1;strokeColor=#CC0000;" vertex="1" parent="1">
          <mxGeometry x="530" y="600" width="120" height="60" as="geometry" />
        </mxCell>
        <mxCell id="_ehPLdMpt5ip51sRVYlI-65" value="True" style="edgeStyle=orthogonalEdgeStyle;shape=connector;rounded=0;orthogonalLoop=1;jettySize=auto;html=1;strokeColor=default;strokeWidth=3;align=center;verticalAlign=middle;fontFamily=Helvetica;fontSize=11;fontColor=default;fontStyle=1;labelBackgroundColor=default;endArrow=classic;" edge="1" parent="1" source="_ehPLdMpt5ip51sRVYlI-62" target="_ehPLdMpt5ip51sRVYlI-64">
          <mxGeometry relative="1" as="geometry" />
        </mxCell>
        <mxCell id="_ehPLdMpt5ip51sRVYlI-62" value="&lt;div&gt;Are results&amp;nbsp;&lt;/div&gt;&lt;div&gt;present in output folder?&lt;/div&gt;" style="rhombus;whiteSpace=wrap;html=1;rounded=1;arcSize=6;strokeWidth=3;fontStyle=1;strokeColor=#CC0000;" vertex="1" parent="1">
          <mxGeometry x="530" y="730" width="120" height="100" as="geometry" />
        </mxCell>
        <mxCell id="_ehPLdMpt5ip51sRVYlI-68" value="" style="edgeStyle=orthogonalEdgeStyle;shape=connector;rounded=0;orthogonalLoop=1;jettySize=auto;html=1;strokeColor=default;strokeWidth=3;align=center;verticalAlign=middle;fontFamily=Helvetica;fontSize=11;fontColor=default;fontStyle=1;labelBackgroundColor=default;endArrow=classic;" edge="1" parent="1" source="_ehPLdMpt5ip51sRVYlI-64" target="_ehPLdMpt5ip51sRVYlI-67">
          <mxGeometry relative="1" as="geometry" />
        </mxCell>
        <mxCell id="_ehPLdMpt5ip51sRVYlI-64" value="Enable result page buttons" style="whiteSpace=wrap;html=1;rounded=1;arcSize=6;strokeWidth=3;fontStyle=1;strokeColor=#CC0000;" vertex="1" parent="1">
          <mxGeometry x="530" y="930" width="120" height="60" as="geometry" />
        </mxCell>
        <mxCell id="_ehPLdMpt5ip51sRVYlI-66" value="False" style="edgeStyle=orthogonalEdgeStyle;shape=connector;rounded=0;orthogonalLoop=1;jettySize=auto;html=1;exitX=0;exitY=0.5;exitDx=0;exitDy=0;entryX=0.5;entryY=0;entryDx=0;entryDy=0;strokeColor=default;strokeWidth=3;align=center;verticalAlign=middle;fontFamily=Helvetica;fontSize=11;fontColor=default;fontStyle=1;labelBackgroundColor=default;endArrow=classic;" edge="1" parent="1" source="_ehPLdMpt5ip51sRVYlI-62" target="_ehPLdMpt5ip51sRVYlI-62">
          <mxGeometry relative="1" as="geometry">
            <Array as="points">
              <mxPoint x="510" y="780" />
              <mxPoint x="510" y="690" />
              <mxPoint x="590" y="690" />
            </Array>
          </mxGeometry>
        </mxCell>
        <mxCell id="_ehPLdMpt5ip51sRVYlI-70" value="" style="edgeStyle=orthogonalEdgeStyle;shape=connector;rounded=0;orthogonalLoop=1;jettySize=auto;html=1;strokeColor=default;strokeWidth=3;align=center;verticalAlign=middle;fontFamily=Helvetica;fontSize=11;fontColor=default;fontStyle=1;labelBackgroundColor=default;endArrow=classic;" edge="1" parent="1" source="_ehPLdMpt5ip51sRVYlI-67" target="_ehPLdMpt5ip51sRVYlI-69">
          <mxGeometry relative="1" as="geometry" />
        </mxCell>
        <mxCell id="_ehPLdMpt5ip51sRVYlI-67" value="&lt;div&gt;Show selected&amp;nbsp;&lt;/div&gt;&lt;div&gt;page&lt;/div&gt;" style="whiteSpace=wrap;html=1;rounded=1;arcSize=6;strokeWidth=3;fontStyle=1;strokeColor=#CC0000;" vertex="1" parent="1">
          <mxGeometry x="530" y="1070" width="120" height="60" as="geometry" />
        </mxCell>
        <mxCell id="_ehPLdMpt5ip51sRVYlI-73" value="False" style="edgeStyle=orthogonalEdgeStyle;shape=connector;rounded=0;orthogonalLoop=1;jettySize=auto;html=1;exitX=0;exitY=0.5;exitDx=0;exitDy=0;entryX=0.5;entryY=0;entryDx=0;entryDy=0;strokeColor=default;strokeWidth=3;align=center;verticalAlign=middle;fontFamily=Helvetica;fontSize=11;fontColor=default;fontStyle=1;labelBackgroundColor=default;endArrow=classic;" edge="1" parent="1" source="_ehPLdMpt5ip51sRVYlI-69" target="_ehPLdMpt5ip51sRVYlI-67">
          <mxGeometry relative="1" as="geometry">
            <Array as="points">
              <mxPoint x="490" y="1240" />
              <mxPoint x="490" y="1050" />
              <mxPoint x="590" y="1050" />
            </Array>
          </mxGeometry>
        </mxCell>
        <mxCell id="_ehPLdMpt5ip51sRVYlI-75" value="" style="edgeStyle=orthogonalEdgeStyle;shape=connector;rounded=0;orthogonalLoop=1;jettySize=auto;html=1;strokeColor=default;strokeWidth=3;align=center;verticalAlign=middle;fontFamily=Helvetica;fontSize=11;fontColor=default;fontStyle=1;labelBackgroundColor=default;endArrow=classic;" edge="1" parent="1" source="_ehPLdMpt5ip51sRVYlI-69" target="_ehPLdMpt5ip51sRVYlI-74">
          <mxGeometry relative="1" as="geometry" />
        </mxCell>
        <mxCell id="_ehPLdMpt5ip51sRVYlI-69" value="&lt;div&gt;User&lt;/div&gt;&lt;div&gt;pressed stop?&lt;/div&gt;" style="rhombus;whiteSpace=wrap;html=1;rounded=1;arcSize=6;strokeWidth=3;fontStyle=1;strokeColor=#0000FF;" vertex="1" parent="1">
          <mxGeometry x="550" y="1200" width="80" height="80" as="geometry" />
        </mxCell>
        <mxCell id="_ehPLdMpt5ip51sRVYlI-77" value="" style="edgeStyle=orthogonalEdgeStyle;shape=connector;rounded=0;orthogonalLoop=1;jettySize=auto;html=1;strokeColor=default;strokeWidth=3;align=center;verticalAlign=middle;fontFamily=Helvetica;fontSize=11;fontColor=default;fontStyle=1;labelBackgroundColor=default;endArrow=classic;" edge="1" parent="1" source="_ehPLdMpt5ip51sRVYlI-74" target="_ehPLdMpt5ip51sRVYlI-76">
          <mxGeometry relative="1" as="geometry" />
        </mxCell>
        <mxCell id="_ehPLdMpt5ip51sRVYlI-74" value="Create flag to signal Sturgeon to stop" style="whiteSpace=wrap;html=1;rounded=1;arcSize=6;strokeWidth=3;fontStyle=1;strokeColor=#CC0000;" vertex="1" parent="1">
          <mxGeometry x="530" y="1370" width="120" height="60" as="geometry" />
        </mxCell>
        <mxCell id="_ehPLdMpt5ip51sRVYlI-79" value="" style="edgeStyle=orthogonalEdgeStyle;shape=connector;rounded=0;orthogonalLoop=1;jettySize=auto;html=1;strokeColor=default;strokeWidth=3;align=center;verticalAlign=middle;fontFamily=Helvetica;fontSize=11;fontColor=default;fontStyle=1;labelBackgroundColor=default;endArrow=classic;" edge="1" parent="1" source="_ehPLdMpt5ip51sRVYlI-76" target="_ehPLdMpt5ip51sRVYlI-78">
          <mxGeometry relative="1" as="geometry" />
        </mxCell>
        <mxCell id="_ehPLdMpt5ip51sRVYlI-76" value="&lt;div&gt;Show progress&amp;nbsp;&lt;/div&gt;&lt;div&gt;page&lt;/div&gt;" style="whiteSpace=wrap;html=1;rounded=1;arcSize=6;strokeWidth=3;fontStyle=1;strokeColor=#CC0000;" vertex="1" parent="1">
          <mxGeometry x="530" y="1510" width="120" height="60" as="geometry" />
        </mxCell>
        <mxCell id="_ehPLdMpt5ip51sRVYlI-82" value="" style="edgeStyle=orthogonalEdgeStyle;shape=connector;rounded=0;orthogonalLoop=1;jettySize=auto;html=1;strokeColor=default;strokeWidth=3;align=center;verticalAlign=middle;fontFamily=Helvetica;fontSize=11;fontColor=default;fontStyle=1;labelBackgroundColor=default;endArrow=classic;" edge="1" parent="1" source="_ehPLdMpt5ip51sRVYlI-78" target="_ehPLdMpt5ip51sRVYlI-81">
          <mxGeometry relative="1" as="geometry" />
        </mxCell>
        <mxCell id="_ehPLdMpt5ip51sRVYlI-78" value="Sturgeon finished?" style="rhombus;whiteSpace=wrap;html=1;rounded=1;arcSize=6;strokeWidth=3;fontStyle=1;strokeColor=#CC0000;" vertex="1" parent="1">
          <mxGeometry x="545" y="1640" width="90" height="90" as="geometry" />
        </mxCell>
        <mxCell id="_ehPLdMpt5ip51sRVYlI-80" value="False" style="edgeStyle=orthogonalEdgeStyle;shape=connector;rounded=0;orthogonalLoop=1;jettySize=auto;html=1;exitX=0;exitY=0.5;exitDx=0;exitDy=0;entryX=0.5;entryY=0;entryDx=0;entryDy=0;strokeColor=default;strokeWidth=3;align=center;verticalAlign=middle;fontFamily=Helvetica;fontSize=11;fontColor=default;fontStyle=1;labelBackgroundColor=default;endArrow=classic;" edge="1" parent="1" source="_ehPLdMpt5ip51sRVYlI-78" target="_ehPLdMpt5ip51sRVYlI-78">
          <mxGeometry relative="1" as="geometry">
            <Array as="points">
              <mxPoint x="525" y="1685" />
              <mxPoint x="525" y="1600" />
              <mxPoint x="590" y="1600" />
            </Array>
          </mxGeometry>
        </mxCell>
        <mxCell id="_ehPLdMpt5ip51sRVYlI-86" style="edgeStyle=orthogonalEdgeStyle;shape=connector;rounded=0;orthogonalLoop=1;jettySize=auto;html=1;exitX=0.5;exitY=1;exitDx=0;exitDy=0;entryX=0.5;entryY=0;entryDx=0;entryDy=0;strokeColor=default;strokeWidth=3;align=center;verticalAlign=middle;fontFamily=Helvetica;fontSize=11;fontColor=default;fontStyle=1;labelBackgroundColor=default;endArrow=classic;" edge="1" parent="1" source="_ehPLdMpt5ip51sRVYlI-81" target="_ehPLdMpt5ip51sRVYlI-85">
          <mxGeometry relative="1" as="geometry" />
        </mxCell>
        <mxCell id="_ehPLdMpt5ip51sRVYlI-81" value="Show completion message to user" style="whiteSpace=wrap;html=1;rounded=1;arcSize=6;strokeWidth=3;fontStyle=1;strokeColor=#CC0000;" vertex="1" parent="1">
          <mxGeometry x="530" y="1825" width="120" height="60" as="geometry" />
        </mxCell>
        <mxCell id="_ehPLdMpt5ip51sRVYlI-85" value="Return" style="rounded=1;whiteSpace=wrap;html=1;fillColor=#000000;fontColor=#FFFFFF;fontStyle=1;fontSize=23;" vertex="1" parent="1">
          <mxGeometry x="530" y="1950" width="120" height="60" as="geometry" />
        </mxCell>
        <mxCell id="_ehPLdMpt5ip51sRVYlI-87" value="&lt;div&gt;See Sturgeon GUI&lt;/div&gt;&lt;div&gt;User Manual&lt;br&gt;&lt;/div&gt;" style="strokeWidth=3;html=1;shape=mxgraph.flowchart.annotation_2;align=left;labelPosition=right;pointerEvents=1;fontFamily=Helvetica;fontSize=11;fontColor=default;labelBackgroundColor=default;fontStyle=0;strokeColor=#0000FF;" vertex="1" parent="1">
          <mxGeometry x="630" y="1190" width="50" height="100" as="geometry" />
        </mxCell>
        <mxCell id="_ehPLdMpt5ip51sRVYlI-89" value="model" style="sketch=0;outlineConnect=0;fontColor=#999999;gradientColor=none;fillColor=#999999;strokeColor=none;dashed=0;verticalLabelPosition=middle;verticalAlign=middle;align=center;html=1;fontSize=11;fontStyle=1;aspect=fixed;pointerEvents=1;shape=mxgraph.aws4.folder;labelPosition=center;" vertex="1" parent="1">
          <mxGeometry x="273.95" y="290" width="43.95" height="40" as="geometry" />
        </mxCell>
        <mxCell id="_ehPLdMpt5ip51sRVYlI-90" value="&lt;div style=&quot;font-size: 11px;&quot;&gt;ref&lt;/div&gt;&lt;div style=&quot;font-size: 11px;&quot;&gt;files&lt;br style=&quot;font-size: 11px;&quot;&gt;&lt;/div&gt;" style="sketch=0;outlineConnect=0;fontColor=#999999;gradientColor=none;fillColor=#999999;strokeColor=none;dashed=0;verticalLabelPosition=middle;verticalAlign=middle;align=center;html=1;fontSize=11;fontStyle=1;aspect=fixed;pointerEvents=1;shape=mxgraph.aws4.folder;labelPosition=center;spacingTop=10;" vertex="1" parent="1">
          <mxGeometry x="323.95" y="290" width="43.95" height="40" as="geometry" />
        </mxCell>
        <mxCell id="_ehPLdMpt5ip51sRVYlI-95" value="" style="group" vertex="1" connectable="0" parent="1">
          <mxGeometry x="380" y="340" width="130" height="120" as="geometry" />
        </mxCell>
        <mxCell id="_ehPLdMpt5ip51sRVYlI-5" value="Sturgeon GUI" style="html=1;verticalLabelPosition=middle;align=center;labelBackgroundColor=#ffffff;verticalAlign=top;strokeWidth=7;strokeColor=#007FFF;shadow=0;dashed=0;shape=mxgraph.ios7.icons.monitor;labelPosition=center;fontStyle=1;spacingBottom=21;" vertex="1" parent="_ehPLdMpt5ip51sRVYlI-95">
          <mxGeometry width="130" height="120" as="geometry" />
        </mxCell>
        <mxCell id="_ehPLdMpt5ip51sRVYlI-91" value="" style="sketch=0;aspect=fixed;pointerEvents=1;shadow=0;dashed=0;html=1;strokeColor=none;labelPosition=center;verticalLabelPosition=bottom;verticalAlign=top;align=center;fillColor=#00188D;shape=mxgraph.mscae.general.graph;fontFamily=Helvetica;fontSize=11;fontColor=default;fontStyle=1;labelBackgroundColor=default;" vertex="1" parent="_ehPLdMpt5ip51sRVYlI-95">
          <mxGeometry x="40" y="30" width="50" height="50" as="geometry" />
        </mxCell>
        <mxCell id="_ehPLdMpt5ip51sRVYlI-97" value="" style="html=1;shadow=0;dashed=0;align=center;verticalAlign=middle;shape=mxgraph.arrows2.arrow;dy=0.51;dx=18.67;notch=0;fontFamily=Helvetica;fontSize=11;fontStyle=1;labelBackgroundColor=default;fillColor=#e51400;strokeColor=#B20000;strokeWidth=3;fontColor=#ffffff;" vertex="1" parent="1">
          <mxGeometry x="190" y="395" width="30" height="35" as="geometry" />
        </mxCell>
      </root>
    </mxGraphModel>
  </diagram>
</mxfile>
